# File created by Blade
# Date/Time:  Mon Nov 15 14:44:42 2010
#---------------------------------------------------------
:version 1.10
:name HOM
:units
  mass 1.0
  length 1.000000
  angle deg
:documentation
     Acclaim Skeleton File
:root
   axis xyz
   order TX TY TZ RX RY RZ
   position 0.000000 0.000000 0.000000
   orientation 0 0 0
:bonedata
   begin
      id 1
      name LeftUpLeg_dum
      direction 1.000000 0.000000 0.000000
      length 4.719518
      axis 0.0 0.0 0.0 xyz
   end
   begin
      id 2
      name RightUpLeg_dum
      direction -1.000000 0.000000 0.000000
      length 4.719518
      axis 0.0 0.0 0.0 xyz
   end
   begin
      id 3
      name Spine_dum
      direction 0.000000 1.000000 0.000000
      length 0.039370
      axis 0.0 0.0 0.0 xyz
   end
   begin
      id 4
      name LeftUpLeg
      direction 0.000000 -1.000000 0.000000
      length 19.141694
      axis 0.0 0.0 0.0 xyz
      dof rx ry rz
   end
   begin
      id 5
      name LeftLeg
      direction 0.000000 -1.000000 0.000000
      length 19.555040
      axis 0.0 0.0 0.0 xyz
      dof rx ry rz
   end
   begin
      id 6
      name LeftFoot
      direction 0.000000 -0.258819 0.965926
      length 6.929396
      axis 15.0 0.0 0.0 xyz
      dof rx ry rz
   end
   begin
      id 7
      name LeftToeBase
      direction 0.000000 0.000000 1.000000
      length 2.952750
      axis 0.0 0.0 0.0 xyz
      dof rx ry rz
   end
   begin
      id 8
      name RightUpLeg
      direction 0.000000 -1.000000 0.000000
      length 19.141694
      axis 0.0 0.0 0.0 xyz
      dof rx ry rz
   end
   begin
      id 9
      name RightLeg
      direction 0.000000 -1.000000 0.000000
      length 19.555040
      axis 0.0 0.0 0.0 xyz
      dof rx ry rz
   end
   begin
      id 10
      name RightFoot
      direction 0.000000 -0.258819 0.965926
      length 6.929396
      axis 15.0 0.0 0.0 xyz
      dof rx ry rz
   end
   begin
      id 11
      name RightToeBase
      direction 0.000000 0.000000 1.000000
      length 2.952750
      axis 0.0 0.0 0.0 xyz
      dof rx ry rz
   end
   begin
      id 12
      name Spine
      direction 0.000000 1.000000 0.000000
      length 11.965764
      axis 0.0 0.0 0.0 xyz
      dof rx ry rz
   end
   begin
      id 13
      name Spine1
      direction 0.000000 1.000000 0.000000
      length 0.000000
      axis 0.0 0.0 0.0 xyz
      dof rx ry rz
   end
   begin
      id 14
      name Spine1_dum1
      direction 0.000000 1.000000 0.000000
      length 9.788721
      axis 0.0 0.0 0.0 xyz
   end
   begin
      id 15
      name Spine1_dum2
      direction 0.000000 1.000000 0.000000
      length 9.788721
      axis 0.0 0.0 0.0 xyz
   end
   begin
      id 16
      name Spine1_dum3
      direction 0.000000 1.000000 0.000000
      length 9.788721
      axis 0.0 0.0 0.0 xyz
   end
   begin
      id 17
      name Neck
      direction 0.000000 1.000000 0.000000
      length 7.029632
      axis 0.0 0.0 0.0 xyz
      dof rx ry rz
   end
   begin
      id 18
      name Head
      direction 0.000000 1.000000 0.000000
      length 4.527550
      axis 0.0 0.0 0.0 xyz
      dof rx ry rz
   end
   begin
      id 19
      name LeftShoulder
      direction 1.000000 -0.000004 0.000000
      length 9.320257
      axis 0.0 0.0 -90.0 xyz
      dof rx ry rz
   end
   begin
      id 20
      name LeftArm
      direction 1.000000 -0.000004 0.000000
      length 12.801352
      axis 0.0 0.0 -90.0 xyz
      dof rx ry rz
   end
   begin
      id 21
      name LeftForeArm
      direction 1.000000 -0.000004 0.000000
      length 11.278127
      axis 0.0 0.0 -90.0 xyz
      dof rx ry rz
   end
   begin
      id 22
      name LeftHand
      direction 0.000000 0.000000 0.000000
      length 0.000000
      axis 0.0 0.0 -90.0 xyz
      dof rx ry rz
   end
   begin
      id 23
      name LeftHand_dum1
      direction 0.000000 0.000000 0.000000
      length 0.000000
      axis 0.0 0.0 -90.0 xyz
   end
   begin
      id 24
      name LeftHand_dum2
      direction 1.000000 -0.000004 0.000000
      length 3.937000
      axis 0.0 0.0 -90.0 xyz
   end
   begin
      id 25
      name LeftHandThumb
      direction 0.000000 0.000000 1.000000
      length 3.937000
      axis 0.0 0.0 -90.0 xyz
      dof rx ry rz
   end
   begin
      id 26
      name RightShoulder
      direction -1.000000 -0.000004 0.000000
      length 9.320257
      axis 0.0 0.0 90.0 xyz
      dof rx ry rz
   end
   begin
      id 27
      name RightArm
      direction -1.000000 -0.000004 0.000000
      length 12.801352
      axis 0.0 0.0 90.0 xyz
      dof rx ry rz
   end
   begin
      id 28
      name RightForeArm
      direction -1.000000 -0.000004 0.000000
      length 11.278127
      axis 0.0 0.0 90.0 xyz
      dof rx ry rz
   end
   begin
      id 29
      name RightHand
      direction 0.000000 0.000000 0.000000
      length 0.000000
      axis 0.0 0.0 90.0 xyz
      dof rx ry rz
   end
   begin
      id 30
      name RightHand_dum1
      direction 0.000000 0.000000 0.000000
      length 0.000000
      axis 0.0 0.0 90.0 xyz
   end
   begin
      id 31
      name RightHand_dum2
      direction -1.000000 -0.000004 0.000000
      length 5.393690
      axis 0.0 0.0 90.0 xyz
   end
   begin
      id 32
      name RightHandThumb
      direction 0.000000 0.000000 1.000000
      length 3.937000
      axis 0.0 0.0 90.0 xyz
      dof rx ry rz
   end
:hierarchy
   begin
      root LeftUpLeg_dum RightUpLeg_dum Spine_dum
      LeftUpLeg_dum LeftUpLeg
      RightUpLeg_dum RightUpLeg
      Spine_dum Spine
      LeftUpLeg LeftLeg
      LeftLeg LeftFoot
      LeftFoot LeftToeBase
      RightUpLeg RightLeg
      RightLeg RightFoot
      RightFoot RightToeBase
      Spine Spine1
      Spine1 Spine1_dum1 Spine1_dum2 Spine1_dum3
      Spine1_dum1 Neck
      Spine1_dum2 LeftShoulder
      Spine1_dum3 RightShoulder
      Neck Head
      LeftShoulder LeftArm
      LeftArm LeftForeArm
      LeftForeArm LeftHand
      LeftHand LeftHand_dum1 LeftHand_dum2
      LeftHand_dum1 LeftHandThumb
      RightShoulder RightArm
      RightArm RightForeArm
      RightForeArm RightHand
      RightHand RightHand_dum1 RightHand_dum2
      RightHand_dum1 RightHandThumb
   end

# File created by Blade
# Date/Time:  Mon Nov 15 14:56:25 2010
# Frame Rate: 200.000 fps
#------------------------------------------------------
:FULLY-SPECIFIED
:DEGREES
64
root  4.869141 40.591295 -88.237955 -13.755824 3.341968 0.280797
LeftUpLeg  14.385026 3.829621 0.561423
LeftLeg  1.144431 -0.000000 0.000000
LeftFoot  2.382512 5.918814 1.218919
LeftToeBase  -22.469665 0.000000 -0.000000
RightUpLeg  19.564593 -5.838002 -1.055755
RightLeg  -6.852899 0.000000 -0.000000
RightFoot  2.306719 -14.038663 -2.406750
RightToeBase  -30.584166 0.000000 -0.000000
Spine  11.724713 -1.560978 0.832342
Spine1  0.606006 0.120321 -4.630661
Neck  13.956211 -4.459246 -1.486480
Head  -18.396361 -6.867143 7.236960
LeftShoulder  -11.911298 6.313071 12.842777
LeftArm  16.436638 -45.347322 -40.685818
LeftForeArm  22.676157 -0.000000 0.000000
LeftHand  -12.269490 6.603140 -9.959523
LeftHandThumb  0.000000 -0.000000 0.000000
RightShoulder  -12.656750 -10.259777 -12.645678
RightArm  9.890322 34.515986 45.880452
RightForeArm  27.763552 -0.000000 0.000000
RightHand  -4.403007 0.883071 13.983326
RightHandThumb  0.000000 -0.000000 0.000000
65
root  4.870126 40.596757 -88.232554 -13.765102 3.328963 0.253790
LeftUpLeg  14.311683 3.812912 0.577478
LeftLeg  1.374189 -0.000000 0.000000
LeftFoot  1.982573 5.947301 1.276372
LeftToeBase  -22.646489 0.000000 -0.000000
RightUpLeg  19.497698 -5.770604 -1.020202
RightLeg  -6.654401 0.000000 -0.000000
RightFoot  2.009861 -14.107029 -2.264906
RightToeBase  -30.857418 0.000000 -0.000000
Spine  11.717846 -1.560367 0.849452
Spine1  0.629372 0.128121 -4.606231
Neck  13.959053 -4.443130 -1.492984
Head  -18.415857 -6.867022 7.253502
LeftShoulder  -11.914770 6.313632 12.843718
LeftArm  16.408816 -45.367259 -40.712327
LeftForeArm  22.758977 -0.000000 0.000000
LeftHand  -12.272676 6.607535 -9.926448
LeftHandThumb  0.000000 -0.000000 0.000000
RightShoulder  -12.653556 -10.250182 -12.646491
RightArm  9.871735 34.526423 45.881930
RightForeArm  27.820508 -0.000000 0.000000
RightHand  -4.397717 0.870635 13.962605
RightHandThumb  0.000000 -0.000000 0.000000
66
root  4.871282 40.602104 -88.227097 -13.780200 3.317116 0.234662
LeftUpLeg  14.227581 3.785443 0.580765
LeftLeg  1.644529 -0.000000 0.000000
LeftFoot  1.533153 6.020090 1.310782
LeftToeBase  -22.771473 0.000000 -0.000000
RightUpLeg  19.417344 -5.679274 -0.984486
RightLeg  -6.419351 0.000000 -0.000000
RightFoot  1.691020 -14.204945 -2.143622
RightToeBase  -31.131623 0.000000 -0.000000
Spine  11.728414 -1.558768 0.859560
Spine1  0.635495 0.133446 -4.583153
Neck  13.950105 -4.443825 -1.484564
Head  -18.407947 -6.851381 7.237602
LeftShoulder  -11.937544 6.335619 12.838035
LeftArm  16.426468 -45.383611 -40.761412
LeftForeArm  22.827748 -0.000000 0.000000
LeftHand  -12.241389 6.621009 -9.859936
LeftHandThumb  0.000000 -0.000000 0.000000
RightShoulder  -12.656618 -10.260239 -12.643749
RightArm  9.866274 34.532227 45.885871
RightForeArm  27.874667 -0.000000 0.000000
RightHand  -4.381397 0.871464 13.938153
RightHandThumb  0.000000 -0.000000 0.000000
67
root  4.872722 40.607651 -88.221318 -13.795293 3.305264 0.215538
LeftUpLeg  14.143480 3.757979 0.584092
LeftLeg  1.914868 -0.000000 0.000000
LeftFoot  1.083716 6.093145 1.344621
LeftToeBase  -22.896458 0.000000 -0.000000
RightUpLeg  19.337059 -5.587894 -0.948905
RightLeg  -6.184301 0.000000 -0.000000
RightFoot  1.371827 -14.302205 -2.021725
RightToeBase  -31.405828 0.000000 -0.000000
Spine  11.738982 -1.557172 0.869668
Spine1  0.641620 0.138768 -4.560074
Neck  13.941157 -4.444518 -1.476144
Head  -18.400042 -6.835737 7.221704
LeftShoulder  -11.960321 6.357604 12.832342
LeftArm  16.444145 -45.399953 -40.810518
LeftForeArm  22.896520 -0.000000 0.000000
LeftHand  -12.210085 6.634447 -9.793416
LeftHandThumb  0.000000 -0.000000 0.000000
RightShoulder  -12.659680 -10.270295 -12.641006
RightArm  9.860812 34.538032 45.889812
RightForeArm  27.928825 -0.000000 0.000000
RightHand  -4.365079 0.872300 13.913702
RightHandThumb  0.000000 -0.000000 0.000000
68
root  4.874638 40.613769 -88.214794 -13.821855 3.296195 0.195527
LeftUpLeg  14.062278 3.734366 0.584320
LeftLeg  2.199855 -0.000000 0.000000
LeftFoot  0.659877 6.185237 1.419167
LeftToeBase  -22.969307 0.000000 -0.000000
RightUpLeg  19.252727 -5.483332 -0.907650
RightLeg  -5.920391 0.000000 -0.000000
RightFoot  1.047174 -14.412422 -1.894066
RightToeBase  -31.734012 0.000000 -0.000000
Spine  11.756591 -1.558020 0.878325
Spine1  0.650340 0.141459 -4.534903
Neck  13.955544 -4.474195 -1.456238
Head  -18.414687 -6.803498 7.170203
LeftShoulder  -11.980967 6.368398 12.824192
LeftArm  16.414080 -45.380209 -40.812388
LeftForeArm  22.986646 -0.000000 0.000000
LeftHand  -12.206189 6.634927 -9.784790
LeftHandThumb  0.000000 -0.000000 0.000000
RightShoulder  -12.653517 -10.278173 -12.641578
RightArm  9.834582 34.535095 45.883162
RightForeArm  27.989669 -0.000000 0.000000
RightHand  -4.343996 0.869267 13.908498
RightHandThumb  0.000000 -0.000000 0.000000
69
root  4.876736 40.619974 -88.208063 -13.848414 3.287118 0.175520
LeftUpLeg  13.981077 3.710753 0.584582
LeftLeg  2.484842 -0.000000 0.000000
LeftFoot  0.236084 6.277874 1.493038
LeftToeBase  -23.042155 0.000000 -0.000000
RightUpLeg  19.168485 -5.378708 -0.866557
RightLeg  -5.656481 0.000000 -0.000000
RightFoot  0.722108 -14.521936 -1.765700
RightToeBase  -32.062196 0.000000 -0.000000
Spine  11.774201 -1.558870 0.886981
Spine1  0.659061 0.144145 -4.509732
Neck  13.969921 -4.503876 -1.436337
Head  -18.429359 -6.771271 7.118697
LeftShoulder  -12.001614 6.379190 12.816038
LeftArm  16.384025 -45.360465 -40.814271
LeftForeArm  23.076771 -0.000000 0.000000
LeftHand  -12.202293 6.635405 -9.776164
LeftHandThumb  0.000000 -0.000000 0.000000
RightShoulder  -12.647353 -10.286051 -12.642152
RightArm  9.808353 34.532155 45.876514
RightForeArm  28.050512 -0.000000 0.000000
RightHand  -4.322914 0.866235 13.903292
RightHandThumb  0.000000 -0.000000 0.000000
70
root  4.878639 40.625915 -88.201890 -13.875771 3.275644 0.152564
LeftUpLeg  13.888200 3.707120 0.593225
LeftLeg  2.784861 -0.000000 0.000000
LeftFoot  -0.147648 6.326744 1.570887
LeftToeBase  -23.126477 0.000000 -0.000000
RightUpLeg  19.071413 -5.271475 -0.814346
RightLeg  -5.374525 0.000000 -0.000000
RightFoot  0.438938 -14.645932 -1.742555
RightToeBase  -32.267523 0.000000 -0.000000
Spine  11.786470 -1.558340 0.896881
Spine1  0.683915 0.149677 -4.478579
Neck  13.979300 -4.514090 -1.433425
Head  -18.447795 -6.769747 7.095853
LeftShoulder  -12.020971 6.382159 12.809050
LeftArm  16.351580 -45.357390 -40.824759
LeftForeArm  23.172558 -0.000000 0.000000
LeftHand  -12.183476 6.608723 -9.764058
LeftHandThumb  0.000000 -0.000000 0.000000
RightShoulder  -12.646919 -10.277826 -12.654142
RightArm  9.779545 34.523557 45.879340
RightForeArm  28.116993 -0.000000 0.000000
RightHand  -4.318726 0.877355 13.889394
RightHandThumb  0.000000 -0.000000 0.000000
71
root  4.880792 40.631561 -88.195164 -13.903123 3.264159 0.129614
LeftUpLeg  13.795322 3.703502 0.601874
LeftLeg  3.084880 -0.000000 0.000000
LeftFoot  -0.531351 6.376131 1.648413
LeftToeBase  -23.210799 0.000000 -0.000000
RightUpLeg  18.974456 -5.164154 -0.762327
RightLeg  -5.092568 0.000000 -0.000000
RightFoot  0.155555 -14.769817 -1.718762
RightToeBase  -32.472851 0.000000 -0.000000
Spine  11.798740 -1.557813 0.906781
Spine1  0.708772 0.155196 -4.447425
Neck  13.988679 -4.524304 -1.430515
Head  -18.466231 -6.768229 7.073008
LeftShoulder  -12.040328 6.385127 12.802060
LeftArm  16.319135 -45.354320 -40.835248
LeftForeArm  23.268345 -0.000000 0.000000
LeftHand  -12.164666 6.582036 -9.751962
LeftHandThumb  0.000000 -0.000000 0.000000
RightShoulder  -12.646486 -10.269601 -12.666132
RightArm  9.750739 34.514961 45.882171
RightForeArm  28.183475 -0.000000 0.000000
RightHand  -4.314542 0.888476 13.875496
RightHandThumb  0.000000 -0.000000 0.000000
72
root  4.883796 40.636797 -88.186627 -13.941897 3.256242 0.116396
LeftUpLeg  13.712827 3.714495 0.603064
LeftLeg  3.392400 -0.000000 0.000000
LeftFoot  -0.909341 6.398849 1.712433
LeftToeBase  -23.299299 0.000000 -0.000000
RightUpLeg  18.881309 -5.053923 -0.714414
RightLeg  -4.788198 0.000000 -0.000000
RightFoot  -0.140897 -14.894482 -1.762123
RightToeBase  -32.710927 0.000000 -0.000000
Spine  11.814361 -1.554220 0.905723
Spine1  0.736719 0.160064 -4.415559
Neck  14.013216 -4.540374 -1.421160
Head  -18.502111 -6.744807 7.041805
LeftShoulder  -12.047970 6.401203 12.817664
LeftArm  16.265254 -45.353626 -40.868283
LeftForeArm  23.395656 -0.000000 0.000000
LeftHand  -12.081982 6.434561 -9.650261
LeftHandThumb  0.000000 -0.000000 0.000000
RightShoulder  -12.639176 -10.274758 -12.680136
RightArm  9.715281 34.513913 45.879124
RightForeArm  28.234728 -0.000000 0.000000
RightHand  -4.297291 0.865477 13.864486
RightHandThumb  0.000000 -0.000000 0.000000
